<svg width="33" height="60" viewBox="0 0 33 60" fill="none" xmlns="http://www.w3.org/2000/svg">
<g id="Group">
<path id="Vector" d="M0 2.29012C0 1.02675 1.0245 0 2.29012 0C3.55499 0 4.58024 1.02675 4.58024 2.29012C4.58024 3.55724 3.55499 4.58024 2.29012 4.58024C1.02487 4.58061 0 3.55724 0 2.29012Z" fill="white"/>
<path id="Vector_2" d="M0 9.21638C0 7.95451 1.0245 6.92664 2.29012 6.92664C3.55499 6.92664 4.58024 7.95451 4.58024 9.21638C4.58024 10.4831 3.55499 11.5087 2.29012 11.5087C1.02487 11.5087 0 10.4831 0 9.21638Z" fill="white"/>
<path id="Vector_3" d="M6.92627 9.21638C6.92627 7.95451 7.95152 6.92664 9.21939 6.92664C10.4835 6.92664 11.5088 7.95451 11.5088 9.21638C11.5088 10.4831 10.4835 11.5087 9.21939 11.5087C7.95152 11.5087 6.92627 10.4831 6.92627 9.21638Z" fill="white"/>
<path id="Vector_4" d="M6.92627 16.1473C6.92627 14.8821 7.95152 13.8535 9.21939 13.8535C10.4835 13.8535 11.5088 14.8821 11.5088 16.1473C11.5088 17.4099 10.4835 18.4374 9.21939 18.4374C7.95152 18.4374 6.92627 17.4099 6.92627 16.1473Z" fill="white"/>
<path id="Vector_5" d="M13.855 16.1473C13.855 14.8821 14.8802 13.8535 16.1459 13.8535C17.41 13.8535 18.4352 14.8821 18.4352 16.1473C18.4352 17.4099 17.41 18.4374 16.1459 18.4374C14.8802 18.4374 13.855 17.4099 13.855 16.1473Z" fill="white"/>
<path id="Vector_6" d="M13.855 23.0736C13.855 21.8068 14.8802 20.7823 16.1459 20.7823C17.41 20.7823 18.4352 21.8068 18.4352 23.0736C18.4352 24.3358 17.41 25.363 16.1459 25.363C14.8802 25.3633 13.855 24.3358 13.855 23.0736Z" fill="white"/>
<path id="Vector_7" d="M20.7817 23.0736C20.7817 21.8068 21.807 20.7823 23.0711 20.7823C24.3382 20.7823 25.3642 21.8068 25.3642 23.0736C25.3642 24.3358 24.3382 25.363 23.0711 25.363C21.8074 25.3633 20.7817 24.3358 20.7817 23.0736Z" fill="white"/>
<path id="Vector_8" d="M20.7817 30.0003C20.7817 28.7332 21.807 27.7094 23.0711 27.7094C24.3382 27.7094 25.3642 28.7332 25.3642 30.0003C25.3642 31.2674 24.3382 32.2911 23.0711 32.2911C21.8074 32.2911 20.7817 31.2674 20.7817 30.0003Z" fill="white"/>
<path id="Vector_9" d="M27.7095 30.0003C27.7095 28.7332 28.7355 27.7094 30.0011 27.7094C31.266 27.7094 32.2905 28.7332 32.2905 30.0003C32.2905 31.2674 31.266 32.2911 30.0011 32.2911C28.7355 32.2911 27.7095 31.2674 27.7095 30.0003Z" fill="white"/>
<path id="Vector_10" d="M13.855 36.9262C13.855 35.664 14.8802 34.6368 16.1459 34.6368C17.41 34.6368 18.4352 35.664 18.4352 36.9262C18.4352 38.193 17.41 39.2175 16.1459 39.2175C14.8802 39.2175 13.855 38.193 13.855 36.9262Z" fill="white"/>
<path id="Vector_11" d="M20.7817 36.9262C20.7817 35.664 21.807 34.6368 23.0711 34.6368C24.3382 34.6368 25.3642 35.664 25.3642 36.9262C25.3642 38.193 24.3382 39.2175 23.0711 39.2175C21.8074 39.2175 20.7817 38.193 20.7817 36.9262Z" fill="white"/>
<path id="Vector_12" d="M6.92627 43.8527C6.92627 42.5901 7.95152 41.5618 9.21939 41.5618C10.4835 41.5618 11.5088 42.5901 11.5088 43.8527C11.5088 45.1179 10.4835 46.1466 9.21939 46.1466C7.95152 46.1469 6.92627 45.1179 6.92627 43.8527Z" fill="white"/>
<path id="Vector_13" d="M13.855 43.8527C13.855 42.5901 14.8802 41.5618 16.1459 41.5618C17.41 41.5618 18.4352 42.5901 18.4352 43.8527C18.4352 45.1179 17.41 46.1466 16.1459 46.1466C14.8802 46.1469 13.855 45.1179 13.855 43.8527Z" fill="white"/>
<path id="Vector_14" d="M0 50.7837C0 49.5166 1.0245 48.4913 2.29012 48.4913C3.55499 48.4913 4.58024 49.5166 4.58024 50.7837C4.58024 52.0456 3.55499 53.0734 2.29012 53.0734C1.02487 53.0734 0 52.0456 0 50.7837Z" fill="white"/>
<path id="Vector_15" d="M6.92627 50.7837C6.92627 49.5166 7.95152 48.4913 9.21939 48.4913C10.4835 48.4913 11.5088 49.5166 11.5088 50.7837C11.5088 52.0456 10.4835 53.0734 9.21939 53.0734C7.95152 53.0734 6.92627 52.0456 6.92627 50.7837Z" fill="white"/>
<path id="Vector_16" d="M0 57.7096C0 56.4429 1.0245 55.4199 2.29012 55.4199C3.55499 55.4199 4.58024 56.4432 4.58024 57.7096C4.58024 58.9771 3.55499 60.0001 2.29012 60.0001C1.02487 60.0001 0 58.9767 0 57.7096Z" fill="white"/>
</g>
</svg>
