<svg width="902" height="602" viewBox="0 0 902 602" fill="none" xmlns="http://www.w3.org/2000/svg">
<g clip-path="url(#clip0_102_833)">
<path d="M705.242 32.8711C700.458 30.6134 695.513 28.4632 690.595 26.4742L692.61 21.5019C697.609 23.5177 702.635 25.7217 707.526 28.0063L705.242 32.8442V32.8711Z" fill="#231F20"/>
<path d="M871.279 253.75C861.711 192.63 833.653 137.021 790.169 92.9152C771.92 74.3966 751.28 58.3508 728.812 45.2347L731.499 40.6118C754.37 53.9698 775.387 70.2844 793.985 89.1523C838.249 134.064 866.818 190.695 876.573 252.916L871.279 253.75Z" fill="#231F20"/>
<path d="M347.823 477.531C310.601 427.351 290.713 367.871 290.256 305.489H295.604C296.034 366.688 315.573 425.093 352.097 474.332L347.796 477.531H347.823Z" fill="#231F20"/>
<path d="M346.775 140.219L342.395 137.155C345.485 132.721 348.737 128.313 352.07 124.066L356.289 127.372C353.01 131.538 349.839 135.865 346.802 140.219H346.775Z" fill="#231F20"/>
<path d="M396.844 85.2551L393.404 81.1697C424.123 55.2599 459.223 36.3382 497.708 24.9153L499.24 30.0489C461.453 41.2568 426.999 59.8291 396.844 85.2551Z" fill="#231F20"/>
<path d="M609.888 19.9968C600.616 19.0023 591.182 18.4648 581.857 18.3841C578.793 18.3841 575.729 18.3841 572.692 18.4648L572.558 13.1162C575.675 13.0355 578.793 13.0087 581.91 13.0355C591.424 13.1162 601.046 13.6537 610.479 14.6751L609.915 19.9968H609.888Z" fill="#231F20"/>
<path d="M701.64 46.041C696.856 43.7564 691.938 41.5525 687.047 39.5635L689.089 34.6181C694.061 36.6608 699.087 38.8916 703.952 41.2299L701.64 46.0679V46.041Z" fill="#231F20"/>
<path d="M859.965 271.032C853.569 207.709 825.43 147.826 780.682 102.403C759.02 80.4172 734.026 62.2212 706.425 48.3524L708.817 43.5683C736.955 57.6789 762.407 76.2243 784.498 98.6401C830.079 144.923 858.782 205.962 865.286 270.494L859.965 271.032Z" fill="#231F20"/>
<path d="M353.763 462.775C324.603 420.927 307.483 371.929 304.231 321.077L309.58 320.728C312.751 370.586 329.548 418.642 358.144 459.711L353.763 462.775Z" fill="#231F20"/>
<path d="M847.36 281.541C843.141 217.788 816.077 157.528 771.168 111.917C744.4 84.7176 712.741 63.8876 677.104 50.0457L679.039 45.0465C715.374 59.1572 747.652 80.3903 774.984 108.155C820.78 154.706 848.382 216.148 852.709 281.191L847.36 281.541Z" fill="#231F20"/>
<path d="M852.09 324.572L846.769 324.061C847.252 318.793 847.602 313.417 847.79 308.123L853.138 308.311C852.95 313.713 852.601 319.169 852.09 324.545V324.572Z" fill="#231F20"/>
<path d="M363.841 453.717C337.019 414.691 321.109 369.161 317.776 322.018L323.125 321.642C326.377 367.844 341.991 412.461 368.249 450.68L363.841 453.717Z" fill="#231F20"/>
<path d="M469.006 70.3919L466.694 65.554C473.198 62.4362 479.917 59.5603 486.663 57.007L488.571 62.0062C481.96 64.5058 475.402 67.3279 469.006 70.3919Z" fill="#231F20"/>
<path d="M493.57 60.1785L491.77 55.1255C493.463 54.5074 495.183 53.9161 496.903 53.3516L498.596 58.4315C496.903 58.9959 495.236 59.5603 493.57 60.1785Z" fill="#231F20"/>
<path d="M839.54 312.047L834.191 311.778C834.379 308.257 834.46 304.709 834.487 301.269C835.051 233.618 809.197 169.758 761.654 121.432C716.826 75.848 656.893 48.9169 592.902 45.6109L593.171 40.2623C658.506 43.622 719.674 71.1176 765.47 117.669C814.008 167.016 840.4 232.248 839.835 301.296C839.808 304.817 839.701 308.445 839.513 312.047H839.54Z" fill="#231F20"/>
<path d="M374.807 445.977C356.746 419.637 343.98 390.529 336.858 359.405L342.072 358.222C349.033 388.674 361.53 417.164 379.214 442.94L374.807 445.977Z" fill="#231F20"/>
<path d="M336.885 359.405C335.891 355.024 334.977 350.535 334.225 346.073L339.492 345.16C340.245 349.514 341.132 353.895 342.099 358.195L336.885 359.378V359.405Z" fill="#231F20"/>
<path d="M820.78 287.266C817.878 228.485 793.501 172.956 752.167 130.893C706.962 84.8788 646.465 59.2378 581.829 58.6734H579.438V53.2979H581.883C647.943 53.8892 709.784 80.0946 755.983 127.13C798.232 170.134 823.145 226.899 826.128 286.97L820.78 287.239V287.266Z" fill="#231F20"/>
<path d="M380.692 430.442C365.131 405.741 354.354 378.703 348.63 350.105L353.871 349.057C359.461 377.009 369.996 403.43 385.208 427.593L380.666 430.442H380.692Z" fill="#231F20"/>
<path d="M601.583 73.1603C595.052 72.5421 588.414 72.1927 581.829 72.1121C576.051 72.0583 570.192 72.2196 564.414 72.6228L564.064 67.2741C569.977 66.871 575.97 66.7097 581.883 66.7635C588.602 66.8172 595.401 67.1935 602.093 67.8117L601.583 73.1334V73.1603Z" fill="#231F20"/>
<path d="M803.499 256.195C795.007 212.358 773.963 172.338 742.653 140.434C706.478 103.559 658.237 79.8796 606.851 73.7516L607.496 68.4299C660.091 74.7192 709.462 98.9357 746.496 136.672C778.559 169.328 800.086 210.316 808.767 255.174L803.499 256.195Z" fill="#231F20"/>
<path d="M382.493 406.548C375.022 392.034 369.109 376.714 364.943 360.937L370.13 359.566C374.215 374.94 379.967 389.91 387.277 404.075L382.52 406.521L382.493 406.548Z" fill="#231F20"/>
<path d="M516.925 94.9041L515.366 89.7705C520.526 88.2116 525.848 86.7871 531.142 85.6045L532.325 90.8187C527.165 91.9745 521.978 93.3452 516.925 94.8772V94.9041Z" fill="#231F20"/>
<path d="M606.206 87.1903C598.143 86.1958 589.946 85.6583 581.829 85.5777C574.062 85.497 566.215 85.8464 558.501 86.599L557.964 81.2773C565.865 80.4978 573.901 80.1484 581.856 80.2291C590.188 80.3097 598.573 80.8741 606.824 81.8954L606.179 87.2172L606.206 87.1903Z" fill="#231F20"/>
<path d="M784.203 234.72C774.124 203.032 756.467 173.709 733.166 149.922C700.673 116.782 657.457 94.7697 611.446 87.916L612.226 82.6211C659.365 89.6361 703.656 112.213 736.955 146.186C760.848 170.564 778.935 200.613 789.282 233.108L784.176 234.72H784.203Z" fill="#231F20"/>
<path d="M390.905 393.189C387.062 384.992 383.729 376.472 380.961 367.871L386.067 366.231C388.755 374.617 392.007 382.922 395.769 390.905L390.932 393.189H390.905Z" fill="#231F20"/>
<path d="M505.046 113.261L503.084 108.289C513.189 104.284 523.671 101.059 534.26 98.6669L535.442 103.881C525.122 106.193 514.909 109.337 505.046 113.234V113.261Z" fill="#231F20"/>
<path d="M598.707 99.9033C593.117 99.3658 587.446 99.0701 581.829 99.0164C576.857 98.9626 571.858 99.097 566.913 99.4195L566.563 94.0709C571.643 93.7484 576.776 93.614 581.856 93.6678C587.607 93.7215 593.439 94.044 599.19 94.5816L598.68 99.9033H598.707Z" fill="#231F20"/>
<path d="M709.542 146.321C680.973 122.265 646.277 106.65 609.242 101.167L610.022 95.8717C648.051 101.489 683.634 117.508 712.982 142.208L709.542 146.294V146.321Z" fill="#231F20"/>
<path d="M715.509 151.562C714.864 150.97 714.192 150.379 713.547 149.788L717.094 145.783C717.766 146.374 718.438 146.992 719.11 147.611L715.509 151.562Z" fill="#231F20"/>
<path d="M770.98 237.516C761.493 208.354 745.126 181.369 723.652 159.437C721.018 156.749 718.277 154.115 715.509 151.589L719.11 147.638C721.959 150.245 724.781 152.959 727.468 155.701C749.506 178.224 766.304 205.935 776.059 235.876L770.98 237.542V237.516Z" fill="#231F20"/>
<path d="M702.366 463.716L699.222 459.388C706.344 454.228 713.17 448.53 719.566 442.429L723.248 446.299C716.691 452.562 709.649 458.421 702.339 463.743L702.366 463.716Z" fill="#231F20"/>
<path d="M601.556 501.425L601.1 496.103C616.929 494.705 632.598 491.373 647.675 486.212L649.422 491.265C633.942 496.587 617.843 500 601.583 501.425H601.556Z" fill="#231F20"/>
<path d="M521.736 121.54L520.097 116.433C528.724 113.665 537.62 111.461 546.542 109.929L547.456 115.197C538.775 116.702 530.148 118.825 521.736 121.54Z" fill="#231F20"/>
<path d="M720.023 175.214C718.115 173.064 716.126 170.94 714.164 168.924C679.119 133.07 632.113 113.019 581.829 112.455C572.127 112.348 562.29 112.993 552.669 114.39L551.89 109.095C561.78 107.671 571.858 106.999 581.883 107.106C633.591 107.698 681.941 128.313 717.981 165.188C720.023 167.258 722.039 169.435 724.028 171.666L720.023 175.241V175.214Z" fill="#231F20"/>
<path d="M757.246 238.806C750.339 218.675 740.099 199.995 726.85 183.304L731.042 179.971C744.668 197.146 755.203 216.336 762.325 237.059L757.273 238.806H757.246Z" fill="#231F20"/>
<path d="M761.761 254.045C760.901 250.632 759.934 247.191 758.886 243.832L763.992 242.246C765.067 245.686 766.062 249.207 766.948 252.728L761.761 254.018V254.045Z" fill="#231F20"/>
<path d="M700.673 448.154L697.367 443.961C702.393 439.983 707.257 435.71 711.853 431.221C718.599 424.636 724.888 417.46 730.558 409.88L734.859 413.079C729.027 420.846 722.55 428.238 715.616 435.038C710.912 439.634 705.887 444.042 700.7 448.154H700.673Z" fill="#231F20"/>
<path d="M595.348 488.389L595.025 483.041C618.085 481.643 640.391 475.972 661.381 466.162L663.639 471C642.058 481.105 619.079 486.938 595.348 488.389Z" fill="#231F20"/>
<path d="M660.602 145.675C636.414 133.043 609.162 126.216 581.829 125.894C561.431 125.625 541.274 128.931 521.951 135.65L520.177 130.597C540.092 123.663 560.786 120.249 581.883 120.545C610.049 120.895 638.134 127.936 663.074 140.945L660.602 145.702V145.675Z" fill="#231F20"/>
<path d="M741.013 233.78C732.547 213.084 720.319 194.458 704.651 178.439C693.013 166.532 679.764 156.373 665.251 148.229L667.858 143.552C682.828 151.938 696.48 162.42 708.467 174.703C724.592 191.233 737.197 210.423 745.931 231.764L740.986 233.78H741.013Z" fill="#231F20"/>
<path d="M751.28 269.312C749.452 258.91 746.63 248.616 742.948 238.725L747.974 236.844C751.79 247.057 754.693 257.674 756.574 268.398L751.307 269.338L751.28 269.312Z" fill="#231F20"/>
<path d="M707.875 423.749L704.086 419.959C705.322 418.696 706.558 417.433 707.768 416.143L711.692 419.798C710.455 421.115 709.192 422.432 707.902 423.722L707.875 423.749Z" fill="#231F20"/>
<path d="M590.698 475.166L590.483 469.817C618.703 468.715 646.492 460.464 670.788 445.95L673.529 450.546C648.454 465.517 619.805 474.037 590.672 475.166H590.698Z" fill="#231F20"/>
<path d="M506.282 156.883L503.863 152.099C505.476 151.266 507.115 150.487 508.782 149.707L511.039 154.572C509.453 155.324 507.868 156.077 506.282 156.883Z" fill="#231F20"/>
<path d="M639.531 150.782C621.094 143.445 601.69 139.574 581.829 139.332C564.494 139.091 547.294 141.644 530.738 146.885L529.126 141.778C546.219 136.349 563.957 133.742 581.91 133.957C602.443 134.226 622.492 138.204 641.547 145.81L639.558 150.782H639.531Z" fill="#231F20"/>
<path d="M718.385 218.352C711.908 207.332 704.087 197.092 695.137 187.927C684.36 176.88 672.078 167.446 658.613 159.894L661.22 155.217C675.142 163.011 687.854 172.768 698.98 184.191C708.199 193.679 716.288 204.241 723.007 215.637L718.385 218.352Z" fill="#231F20"/>
<path d="M739.025 277.885C736.66 260.361 731.419 243.455 723.464 227.625L728.248 225.206C736.472 241.574 741.9 259.044 744.346 277.16L739.052 277.885H739.025Z" fill="#231F20"/>
<path d="M587.635 461.834L587.527 456.486C626.766 455.599 663.988 440.037 692.342 412.703L696.051 416.546C666.73 444.821 628.244 460.921 587.662 461.834H587.635Z" fill="#231F20"/>
<path d="M726.312 284.954C723.087 252.191 708.655 221.093 685.65 197.414C658.21 169.166 621.336 153.309 581.829 152.744C552.723 152.287 524.342 160.404 499.724 176.047L496.849 171.532C522.354 155.298 551.809 146.939 581.91 147.396C622.841 147.987 661.058 164.409 689.493 193.679C713.358 218.244 728.328 250.47 731.661 284.417L726.339 284.954H726.312Z" fill="#231F20"/>
<path d="M730.505 322.636L725.211 321.803C726.286 315.03 726.877 308.123 726.985 301.242C727.012 299.334 726.985 297.425 726.958 295.517L732.306 295.383C732.36 297.372 732.36 299.334 732.333 301.323C732.225 308.445 731.607 315.621 730.505 322.636Z" fill="#231F20"/>
<path d="M586.183 448.423L586.103 443.074C622.546 442.536 657.081 428.184 683.311 402.704C686.537 399.586 689.654 396.254 692.557 392.84L696.642 396.307C693.605 399.855 690.38 403.322 687.047 406.548C659.822 432.995 623.997 447.858 586.183 448.423Z" fill="#231F20"/>
<path d="M505.61 188.249L502.681 183.761C513.404 176.773 525.041 171.263 537.243 167.392L538.855 172.499C527.111 176.208 515.93 181.503 505.61 188.249Z" fill="#231F20"/>
<path d="M564.576 167.043L563.984 161.721C567.586 161.318 571.268 161.049 574.923 160.915L575.111 166.264C571.617 166.371 568.069 166.64 564.603 167.043H564.576Z" fill="#231F20"/>
<path d="M601.368 167.93C594.944 166.882 588.36 166.29 581.829 166.21H580.378L580.405 160.834H581.91C588.709 160.942 595.536 161.56 602.228 162.635L601.368 167.93Z" fill="#231F20"/>
<path d="M654.85 189.083C640.176 179.192 623.916 172.392 606.555 168.871L607.63 163.63C625.69 167.285 642.595 174.381 657.86 184.648L654.877 189.083H654.85Z" fill="#231F20"/>
<path d="M713.278 290.491C711.235 259.206 698.039 229.533 676.136 206.929C672.131 202.817 667.831 198.893 663.343 195.318L666.675 191.125C671.352 194.834 675.84 198.893 679.979 203.193C702.769 226.711 716.476 257.593 718.626 290.142L713.278 290.491Z" fill="#231F20"/>
<path d="M711.316 344.111L706.264 342.337C710.886 329.087 713.332 315.272 713.547 301.215C713.574 299.387 713.547 297.56 713.547 295.732L718.895 295.598C718.949 297.506 718.949 299.387 718.895 301.296C718.653 315.917 716.1 330.296 711.316 344.084V344.111Z" fill="#231F20"/>
<path d="M584.06 434.984C583.307 434.984 582.555 434.984 581.829 434.984C579.679 434.957 577.529 434.849 575.379 434.715L575.728 429.366C577.798 429.501 579.84 429.582 581.91 429.608C616.337 430.227 648.991 417.245 673.824 393.163C679.549 387.599 684.816 381.498 689.439 374.994L693.793 378.084C688.982 384.858 683.526 391.227 677.56 397.006C652.216 421.545 619.105 434.957 584.06 434.957V434.984Z" fill="#231F20"/>
<path d="M469.516 248.67L464.705 246.304C466.318 243.025 468.065 239.773 469.946 236.656L474.542 239.397C472.741 242.38 471.048 245.498 469.516 248.643V248.67Z" fill="#231F20"/>
<path d="M477.337 234.962L472.876 232.006C473.87 230.474 474.919 228.969 475.994 227.49L480.347 230.635C479.326 232.059 478.332 233.511 477.364 234.962H477.337Z" fill="#231F20"/>
<path d="M497.87 211.095L494.296 207.117C502.466 199.753 511.55 193.49 521.333 188.464L523.778 193.222C514.426 198.033 505.718 204.053 497.87 211.095Z" fill="#231F20"/>
<path d="M595.186 180.616C593.439 180.401 591.719 180.213 589.945 180.052L590.402 174.703C592.23 174.864 594.057 175.053 595.858 175.294L595.186 180.616Z" fill="#231F20"/>
<path d="M620.718 186.744C617.413 185.562 614.053 184.513 610.667 183.626L612.038 178.439C615.558 179.38 619.079 180.455 622.519 181.691L620.718 186.744Z" fill="#231F20"/>
<path d="M584.06 421.572C583.308 421.572 582.555 421.572 581.803 421.572C580.217 421.545 578.658 421.491 577.1 421.384L577.395 416.035C578.9 416.116 580.378 416.17 581.883 416.197C612.71 416.734 642.004 405.204 664.311 383.702C686.833 361.958 699.545 332.688 700.109 301.242C700.674 269.5 688.768 239.37 666.622 216.444C663.612 213.326 660.387 210.316 657.028 207.547L660.441 203.435C663.935 206.338 667.294 209.456 670.465 212.735C693.605 236.709 706.049 268.183 705.457 301.349C704.866 334.22 691.59 364.834 668.02 387.572C645.229 409.558 615.478 421.599 584.034 421.599L584.06 421.572Z" fill="#231F20"/>
<path d="M470.538 296.189L465.189 295.84C467.071 266.839 479.595 239.827 500.423 219.75C521.118 199.807 548.262 188.437 576.857 187.739L576.992 193.087C549.74 193.759 523.859 204.618 504.132 223.62C484.244 242.757 472.311 268.532 470.538 296.189Z" fill="#231F20"/>
<path d="M670.089 242.407C666.326 236.521 661.972 230.984 657.108 225.931C651.061 219.642 644.235 214.105 636.844 209.456L639.693 204.913C647.46 209.778 654.635 215.61 660.978 222.222C666.084 227.517 670.653 233.35 674.604 239.531L670.089 242.407Z" fill="#231F20"/>
<path d="M677.56 256.222C676.163 253.051 674.55 249.906 672.83 246.869L677.48 244.208C679.307 247.406 680.973 250.712 682.451 254.018L677.56 256.195V256.222Z" fill="#231F20"/>
<path d="M585.995 408.106L585.888 402.758C611.661 402.274 636.145 392.114 654.824 374.187C674.819 354.997 686.107 329.087 686.671 301.242C686.913 289.255 685.112 277.429 681.323 266.032L686.402 264.339C690.38 276.3 692.261 288.771 692.019 301.349C691.428 330.619 679.549 357.873 658.532 378.058C638.859 396.952 613.113 407.623 585.995 408.133V408.106Z" fill="#231F20"/>
<path d="M479.165 316.132C478.547 311.213 478.305 306.187 478.412 301.215C479.004 273.719 490.184 248.186 509.937 229.264C529.476 210.558 555.062 200.586 581.937 201.177C586.183 201.258 590.484 201.634 594.703 202.279L593.897 207.574C589.892 206.956 585.834 206.607 581.803 206.526C556.352 205.988 532.137 215.422 513.646 233.135C494.941 251.062 484.325 275.278 483.761 301.349C483.653 306.053 483.895 310.81 484.486 315.487L479.165 316.132Z" fill="#231F20"/>
<path d="M585.511 394.668L585.431 389.319C607.791 388.97 629.077 380.208 645.336 364.673C662.779 348.009 672.696 325.485 673.233 301.215C673.798 276.649 664.687 253.293 647.621 235.419C637.032 224.346 623.728 215.96 609.108 211.176L610.774 206.096C626.201 211.149 640.284 220.018 651.464 231.71C669.524 250.605 679.146 275.332 678.555 301.323C677.963 327.017 667.482 350.884 648.991 368.516C631.737 384.992 609.189 394.265 585.458 394.641L585.511 394.668Z" fill="#231F20"/>
<path d="M584.06 381.256C583.308 381.256 582.555 381.256 581.803 381.229H581.104L581.292 375.854H581.937C602.04 376.472 621.175 369.08 635.849 355.158C650.765 341.047 659.258 321.884 659.822 301.215C660.387 280.251 652.674 260.254 638.134 244.934C623.379 229.399 603.384 220.529 581.803 219.965C559.926 219.427 539.097 227.463 523.133 242.649C506.954 258.05 497.736 278.88 497.198 301.349C496.956 311.267 498.435 321.104 501.606 330.538L496.526 332.232C493.14 322.206 491.581 311.751 491.823 301.215C492.414 277.321 502.197 255.147 519.424 238.752C536.41 222.599 558.609 213.971 581.91 214.616C604.916 215.207 626.228 224.668 641.977 241.252C657.511 257.62 665.735 278.961 665.144 301.376C664.553 323.469 655.442 343.977 639.504 359.082C624.347 373.461 604.701 381.283 584.033 381.283L584.06 381.256Z" fill="#231F20"/>
<path d="M584.06 367.817C583.308 367.817 582.528 367.817 581.776 367.79C578.766 367.683 575.729 367.387 572.772 366.877L573.686 361.609C576.428 362.065 579.223 362.361 581.964 362.469C598.465 363.033 614.215 357.066 626.362 345.67C638.725 334.086 645.847 318.282 646.385 301.215C646.949 283.825 640.633 267.215 628.62 254.421C616.391 241.413 599.756 233.968 581.803 233.403C563.5 232.839 546.058 239.505 532.647 252.164C519.021 265.011 511.2 282.481 510.663 301.376C510.421 310.004 511.711 318.524 514.533 326.722L509.48 328.469C506.444 319.68 505.046 310.515 505.315 301.215C505.906 280.923 514.318 262.108 528.992 248.267C543.451 234.64 562.291 227.463 581.991 228.055C601.395 228.646 619.348 236.709 632.544 250.739C645.525 264.554 652.351 282.535 651.76 301.349C651.168 319.868 643.455 336.989 630.044 349.541C617.413 361.367 601.18 367.817 584.087 367.817H584.06Z" fill="#231F20"/>
<path d="M583.952 354.379C583.226 354.379 582.474 354.379 581.748 354.325C576.427 354.11 571.186 353.088 566.187 351.288L567.988 346.235C572.476 347.847 577.206 348.761 581.99 348.976C594.649 349.541 607.414 344.837 616.875 336.102C626.55 327.179 632.409 314.439 632.946 301.134C633.484 287.534 628.431 273.961 619.105 263.855C609.564 253.535 595.965 247.326 581.775 246.788C567.289 246.251 552.83 251.653 542.134 261.625C531.034 271.946 524.638 286.056 524.1 301.323C523.778 310.81 525.793 320.379 529.986 328.953L525.175 331.318C520.606 321.938 518.376 311.509 518.725 301.134C519.316 284.417 526.331 268.989 538.479 257.701C550.223 246.788 566.053 240.848 581.963 241.44C597.551 242.031 612.521 248.858 623.029 260.2C633.323 271.327 638.886 286.325 638.294 301.323C637.703 316.024 631.226 330.135 620.503 339.999C610.559 349.164 597.336 354.325 583.952 354.325V354.379Z" fill="#231F20"/>
<path d="M583.953 340.967C583.2 340.967 582.448 340.967 581.695 340.913C571.402 340.322 561.646 335.618 554.9 328.012C548.369 320.621 544.956 310.837 545.574 301.134C546.165 291.727 550.519 282.831 557.507 276.73C564.28 270.817 573.202 267.78 582.018 268.398C590.537 268.989 598.573 272.994 604.055 279.364C609.35 285.519 612.011 293.582 611.366 301.511C610.747 309.144 607.119 316.32 601.368 321.158C595.858 325.808 588.629 328.119 581.587 327.474C574.842 326.856 568.526 323.55 564.333 318.417C560.302 313.525 558.367 307.155 559.012 301C559.63 295.114 562.586 289.712 567.102 286.11C571.375 282.697 576.884 281.138 582.179 281.81C587.178 282.455 591.72 285.062 594.676 288.959C597.444 292.641 598.627 297.291 597.928 301.672C597.283 305.784 594.998 309.466 591.693 311.751C588.602 313.874 584.813 314.681 581.292 313.928C578.04 313.229 575.218 311.267 573.605 308.526C572.1 305.999 571.724 303.043 572.584 300.409C573.364 297.99 575.084 296.081 577.287 295.168C579.33 294.334 581.561 294.496 583.281 295.598C584.974 296.673 585.914 298.527 585.699 300.355C585.458 302.371 583.791 303.903 581.856 303.903V298.554C581.023 298.554 580.459 299.145 580.378 299.737C580.351 299.979 580.405 300.14 580.459 300.167C580.217 300.006 579.787 299.952 579.303 300.167C578.577 300.462 577.986 301.161 577.691 302.048C577.314 303.231 577.502 304.602 578.228 305.811C579.088 307.262 580.62 308.311 582.421 308.687C584.517 309.144 586.774 308.633 588.656 307.343C590.779 305.892 592.23 303.5 592.66 300.812C593.144 297.828 592.311 294.684 590.43 292.157C588.36 289.389 585.108 287.561 581.534 287.104C577.664 286.621 573.632 287.776 570.461 290.276C567.075 292.964 564.844 297.076 564.36 301.538C563.85 306.295 565.355 311.187 568.472 315.003C571.778 319.035 576.75 321.642 582.098 322.126C587.742 322.663 593.52 320.782 597.955 317.046C602.631 313.122 605.587 307.289 606.071 301.054C606.582 294.523 604.378 287.884 600.024 282.831C595.455 277.536 588.79 274.203 581.668 273.719C574.25 273.182 566.752 275.762 561.055 280.734C555.142 285.922 551.433 293.474 550.949 301.457C550.412 309.735 553.341 318.121 558.931 324.464C564.737 331.022 573.149 335.054 582.018 335.564C591.182 336.075 600.427 332.823 607.388 326.614C614.564 320.19 618.971 310.918 619.482 301.134C620.02 291.082 616.391 280.949 609.538 273.37C602.497 265.576 592.338 260.791 581.695 260.281C570.73 259.716 559.765 263.721 551.567 271.193C543.129 278.853 537.995 289.873 537.485 301.403C537.135 308.875 538.721 316.428 542.054 323.201L537.243 325.566C533.534 317.987 531.76 309.547 532.136 301.161C532.728 288.233 538.506 275.843 547.966 267.242C557.211 258.829 569.574 254.341 581.964 254.932C594.004 255.523 605.507 260.926 613.516 269.795C621.31 278.423 625.422 289.953 624.83 301.43C624.239 312.611 619.186 323.228 610.936 330.592C603.491 337.258 593.762 340.967 583.926 340.967H583.953Z" fill="#231F20"/>
<path d="M340.836 490.539C299.072 436.596 276.362 369.376 276.845 301.242V298.715L282.221 298.796V301.269C281.71 368.193 304.044 434.258 345.083 487.26L340.836 490.539Z" fill="#231F20"/>
<path d="M326.215 147.154L321.646 144.359C322.587 142.827 323.555 141.294 324.522 139.762L329.037 142.638C328.097 144.143 327.129 145.649 326.215 147.154Z" fill="#231F20"/>
<path d="M331.94 138.15L327.479 135.193C329.467 132.183 331.537 129.173 333.633 126.27L337.987 129.388C335.944 132.264 333.902 135.22 331.94 138.15Z" fill="#231F20"/>
<path d="M341.105 125.087L336.805 121.889C341.105 116.11 345.647 110.412 350.35 104.956L354.408 108.45C349.786 113.826 345.324 119.416 341.105 125.087Z" fill="#231F20"/>
<path d="M384.428 78.2132L380.907 74.1816C416.302 43.2995 459.061 20.7762 504.535 9.08456L505.879 14.2719C461.211 25.7486 419.205 47.8687 384.428 78.2132Z" fill="#231F20"/>
<path d="M693.82 13.3043C688.902 11.3423 683.849 9.48772 678.823 7.79444L680.543 2.71461C685.65 4.43477 690.81 6.34306 695.809 8.33199L693.847 13.3043H693.82Z" fill="#231F20"/>
<path d="M722.873 26.6086C719.728 24.9691 716.53 23.3565 713.332 21.8513L715.643 17.0134C718.895 18.5723 722.147 20.2118 725.345 21.8782L722.873 26.6355V26.6086Z" fill="#231F20"/>
<path d="M885.389 257.244C876.386 192.066 845.963 130.329 799.683 83.4006C779.688 63.135 757.005 45.7453 732.226 31.6885L734.859 27.0387C760.069 41.3374 783.155 59.0228 803.473 79.6377C850.559 127.372 881.519 190.184 890.657 256.518L885.363 257.244H885.389Z" fill="#231F20"/>
<path d="M334.332 503.978C288.08 446.729 262.897 374.725 263.381 301.242C263.381 300.167 263.381 299.119 263.408 298.043L268.756 298.151C268.756 299.199 268.729 300.247 268.729 301.296C268.245 373.542 292.998 444.337 338.471 500.618L334.306 503.978H334.332Z" fill="#231F20"/>
<path d="M270.368 271.569L265.047 271.032C265.396 267.484 265.853 263.855 266.337 260.254L271.631 260.98C271.148 264.527 270.718 268.075 270.368 271.569Z" fill="#231F20"/>
<path d="M306.112 155.136L301.409 152.583C311.676 133.5 323.958 115.438 337.906 98.8551L341.991 102.295C328.285 118.583 316.218 136.349 306.112 155.109V155.136Z" fill="#231F20"/>
<path d="M383.703 61.2536L380.316 57.1145C412.11 31.2315 448.07 12.0142 487.254 0.0268707L488.813 5.13358C450.3 16.9328 414.932 35.8276 383.703 61.2536Z" fill="#231F20"/>
<path d="M900.923 277.16C895.655 200.72 863.082 128.528 809.169 73.9128C793.877 58.4046 776.919 44.4015 758.805 32.3066L761.788 27.845C780.225 40.1548 797.452 54.373 812.986 70.1231C867.785 125.652 900.923 199.054 906.271 276.783L900.923 277.16Z" fill="#231F20"/>
<path d="M323.932 512.498C275.744 452.857 249.46 377.842 249.97 301.269C249.97 297.882 250.078 294.469 250.185 291.082L255.533 291.27C255.399 294.603 255.345 297.936 255.318 301.269C254.835 376.606 280.662 450.438 328.098 509.112L323.932 512.471V512.498Z" fill="#231F20"/>
<path d="M257.011 270.01L251.689 269.473C252.066 265.898 252.496 262.297 252.979 258.722L258.274 259.448C257.79 262.968 257.387 266.489 257.011 270.037V270.01Z" fill="#231F20"/>
<path d="M284.908 167.581L280.044 165.35C280.796 163.71 281.549 162.071 282.328 160.431L287.166 162.743C286.387 164.355 285.661 165.968 284.908 167.581Z" fill="#231F20"/>
<path d="M289.504 157.958L284.72 155.566C299.259 126.378 317.992 99.5808 340.379 75.9018L344.276 79.584C322.238 102.887 303.828 129.253 289.53 157.958H289.504Z" fill="#231F20"/>
<path d="M359.407 64.5595L355.779 60.6354C357.096 59.399 358.44 58.1896 359.784 56.9801L363.358 60.9579C362.041 62.1405 360.724 63.35 359.407 64.5595Z" fill="#231F20"/>
<path d="M388.191 40.8268L385.02 36.4995C404.666 22.0932 425.978 9.83713 448.312 0.107513L450.462 5.02608C428.477 14.5944 407.541 26.6355 388.191 40.8268Z" fill="#231F20"/>
<path d="M920.435 304.521L915.087 304.44C915.087 303.392 915.114 302.317 915.114 301.269C915.678 212.09 881.439 127.963 818.684 64.3982C804.736 50.2607 789.417 37.3058 773.211 25.8829L776.302 21.5019C792.776 33.113 808.337 46.2829 822.528 60.6354C886.276 125.222 921.08 210.692 920.516 301.296C920.516 302.371 920.516 303.446 920.489 304.521H920.435Z" fill="#231F20"/>
<path d="M315.68 523.652C264.133 461.162 235.994 382.17 236.505 301.269V298.393L241.88 298.474V301.323C241.342 380.987 269.024 458.743 319.792 520.266L315.653 523.679L315.68 523.652Z" fill="#231F20"/>
<path d="M244.486 261.221L239.165 260.55C239.38 258.749 239.622 256.975 239.891 255.174L245.185 255.927C244.943 257.674 244.701 259.448 244.486 261.221Z" fill="#231F20"/>
<path d="M267.546 173.816L262.601 171.773C277.14 136.537 297.27 104.204 322.453 75.633L326.484 79.1808C301.705 107.321 281.897 139.144 267.573 173.843L267.546 173.816Z" fill="#231F20"/>
<path d="M330.005 75.203L326.055 71.6014C330.194 67.0591 334.494 62.5706 338.874 58.2433C342.18 54.9643 345.593 51.739 349.033 48.5943L352.635 52.5453C349.248 55.6093 345.889 58.8078 342.637 62.033C338.337 66.2797 334.09 70.6876 330.032 75.1761L330.005 75.203Z" fill="#231F20"/>
<path d="M385.907 25.9098L382.843 21.5288C393.163 14.2988 403.967 7.55254 415.013 1.50513L417.593 6.20867C406.735 12.1755 396.066 18.8142 385.907 25.9367V25.9098Z" fill="#231F20"/>
<path d="M928.525 293.931C927.181 203.919 891.544 119.04 828.198 54.8837C810.46 36.9296 790.734 20.8837 769.556 7.17627L772.458 2.68774C793.959 16.6102 813.981 32.8979 831.988 51.1208C896.328 116.245 932.502 202.441 933.873 293.851L928.525 293.931Z" fill="#231F20"/>
<path d="M308.666 536.177C288.778 512.767 271.954 486.857 258.624 459.2L263.435 456.889C276.55 484.143 293.132 509.676 312.725 532.737L308.639 536.204L308.666 536.177Z" fill="#231F20"/>
<path d="M244.003 424.233C230.565 386.658 223.551 347.364 223.094 307.504L228.442 307.451C228.899 346.745 235.833 385.422 249.056 422.459L244.003 424.26V424.233Z" fill="#231F20"/>
<path d="M231.157 259.528L225.836 258.856C226.293 255.282 226.777 251.707 227.341 248.132L232.635 248.965C232.098 252.486 231.587 256.007 231.157 259.528Z" fill="#231F20"/>
<path d="M244.809 197.092L239.703 195.479C254.538 148.525 278.377 105.897 310.601 68.7524L314.632 72.2733C282.892 108.853 259.403 150.863 244.783 197.092H244.809Z" fill="#231F20"/>
<path d="M318.18 68.2417L314.202 64.667C319.067 59.2378 324.173 53.8623 329.36 48.7287C334.386 43.7564 339.653 38.8647 344.975 34.2149L348.495 38.2465C343.255 42.8426 338.095 47.6536 333.123 52.5453C327.989 57.5983 322.964 62.8931 318.18 68.2417Z" fill="#231F20"/>
<path d="M364.944 24.6735L361.665 20.4268C370.185 13.815 379.134 7.52567 388.218 1.72015L391.094 6.23556C382.144 11.9604 373.329 18.1422 364.944 24.6466V24.6735Z" fill="#231F20"/>
<path d="M947.095 312.987L941.747 312.772C941.881 308.902 941.989 305.032 941.989 301.242C942.553 204.886 905.519 114.014 837.685 45.369C825.591 33.1398 812.502 21.6632 798.796 11.2885L802.021 7.015C815.943 17.5509 829.219 29.1889 841.474 41.6062C910.303 111.272 947.902 203.489 947.337 301.269C947.337 305.112 947.23 309.036 947.068 312.987H947.095Z" fill="#231F20"/>
<path d="M303.855 551.148C288.294 533.624 274.319 514.568 262.332 494.464L266.928 491.722C278.753 511.531 292.513 530.345 307.859 547.6L303.855 551.148Z" fill="#231F20"/>
<path d="M222.369 400.016C221.912 398.269 221.455 396.522 220.998 394.775L226.185 393.458C226.615 395.178 227.072 396.899 227.529 398.619L222.369 400.016Z" fill="#231F20"/>
<path d="M219.708 389.507C216.806 377.251 214.494 364.726 212.828 352.255L218.123 351.556C219.762 363.839 222.02 376.203 224.895 388.271L219.681 389.507H219.708Z" fill="#231F20"/>
<path d="M209.791 314.492C209.684 310.891 209.63 307.289 209.63 303.661H214.978C214.978 307.209 215.032 310.783 215.139 314.331L209.791 314.492Z" fill="#231F20"/>
<path d="M218.821 250.471L213.526 249.691C213.795 247.917 214.064 246.116 214.36 244.342L219.654 245.203C219.385 246.95 219.09 248.723 218.848 250.471H218.821Z" fill="#231F20"/>
<path d="M221.481 234.693L216.214 233.699C225.083 187.255 242.444 143.498 267.842 103.639L272.357 106.515C247.336 145.783 230.189 188.921 221.455 234.693H221.481Z" fill="#231F20"/>
<path d="M297.378 71.9239L293.239 68.5374C294.368 67.1397 295.524 65.7421 296.679 64.3714L300.791 67.8117C299.636 69.1824 298.507 70.5532 297.378 71.9239Z" fill="#231F20"/>
<path d="M314.982 51.9003L311.085 48.2181C313.934 45.2078 316.89 42.1706 319.873 39.241C324.576 34.5912 329.495 29.9952 334.413 25.6142L337.961 29.6189C333.096 33.9462 328.258 38.4616 323.636 43.0576C320.706 45.9604 317.804 48.9169 314.982 51.9003Z" fill="#231F20"/>
<path d="M341.965 26.098L338.471 22.0395C347.313 14.4063 356.639 7.12251 366.179 0.376282L369.27 4.7573C359.864 11.4229 350.672 18.5992 341.965 26.1248V26.098Z" fill="#231F20"/>
<path d="M952.632 253.427C942.554 171.747 905.116 94.5009 847.199 35.9082C842.335 30.9896 837.309 26.1786 832.229 21.5825L835.831 17.6047C840.991 22.2814 846.097 27.173 851.015 32.1454C909.766 91.5713 947.768 169.919 957.953 252.782L952.632 253.427Z" fill="#231F20"/>
<path d="M329.226 595.119C327.856 593.937 326.512 592.754 325.168 591.545L328.742 587.567C330.059 588.75 331.403 589.932 332.747 591.088L329.226 595.119Z" fill="#231F20"/>
<path d="M305.656 572.811C288.08 554.723 272.196 534.833 258.463 513.681L262.951 510.778C276.496 531.635 292.138 551.255 309.473 569.102L305.63 572.838L305.656 572.811Z" fill="#231F20"/>
<path d="M196.191 303.822V301.269C196.245 293.125 196.541 284.9 197.105 276.783L202.453 277.16C201.889 285.169 201.593 293.286 201.54 301.296V303.822H196.191Z" fill="#231F20"/>
<path d="M211 219.105L205.786 217.922C215.434 175.483 232.07 135.274 255.21 98.4519L259.752 101.301C236.935 137.612 220.514 177.256 211 219.105Z" fill="#231F20"/>
<path d="M281.173 70.7144L276.953 67.4354C282.463 60.3398 288.295 53.3248 294.288 46.6592L298.265 50.2339C292.353 56.8188 286.628 63.7263 281.173 70.7144Z" fill="#231F20"/>
<path d="M301.839 46.256L297.889 42.6276C301.92 38.2465 306.113 33.9193 310.332 29.7264C320.169 19.9968 330.65 10.7241 341.454 2.12332L344.787 6.3162C334.117 14.7826 323.797 23.9478 314.095 33.543C309.929 37.6552 305.79 41.9556 301.813 46.256H301.839Z" fill="#231F20"/>
<path d="M966.204 253.776C956.394 170.564 919.01 91.3832 860.959 30.8015L864.829 27.0924C923.687 88.5073 961.554 168.79 971.525 253.158L966.204 253.776Z" fill="#231F20"/>
<path d="M316.702 602C310.466 596.436 304.339 590.631 298.453 584.691C287.407 573.537 276.926 561.603 267.277 549.213L271.497 545.934C281.011 558.136 291.358 569.908 302.242 580.928C308.048 586.787 314.095 592.539 320.249 598.022L316.675 602.027L316.702 602Z" fill="#231F20"/>
<path d="M188.263 292.292L182.915 292.13C183.264 279.552 184.232 266.839 185.764 254.368L191.085 255.04C189.553 267.35 188.613 279.874 188.263 292.292Z" fill="#231F20"/>
<path d="M197.428 218.218L192.188 217.062C201.997 172.795 219.144 130.866 243.117 92.4314L247.659 95.2535C224.008 133.178 207.077 174.542 197.401 218.218H197.428Z" fill="#231F20"/>
<path d="M259.483 77.4607L255.103 74.3966C263.353 62.6243 272.357 51.1746 281.871 40.3967L285.902 43.9445C276.549 54.588 267.653 65.8765 259.51 77.4875L259.483 77.4607Z" fill="#231F20"/>
<path d="M293.024 35.9888L289.101 32.3335C290.337 31.0165 291.573 29.6995 292.809 28.3825L296.679 32.0916C295.443 33.3817 294.234 34.6718 293.024 35.9888Z" fill="#231F20"/>
<path d="M300.415 28.275L296.599 24.5391C297.996 23.0877 299.421 21.6632 300.872 20.2656C307.107 14.1106 313.638 8.06323 320.249 2.31146L323.743 6.36995C317.212 12.0411 310.762 17.981 304.608 24.0822C303.183 25.4798 301.786 26.8774 300.388 28.3019L300.415 28.275Z" fill="#231F20"/>
<path d="M979.266 249.664C969.026 167.392 934.195 91.3831 878.482 29.8608L882.46 26.2592C938.899 88.6148 974.213 165.645 984.587 249.019L979.266 249.691V249.664Z" fill="#231F20"/>
<path d="M175.068 285.384L169.72 285.142C170.042 277.993 170.553 270.709 171.252 263.56L176.573 264.07C175.901 271.139 175.39 278.315 175.068 285.384Z" fill="#231F20"/>
<path d="M184.043 216.632L178.803 215.503C192.644 152.045 221.777 91.9745 262.977 41.8481L267.116 45.2615C226.426 94.7428 197.696 154.007 184.043 216.632Z" fill="#231F20"/>
<path d="M270.529 41.1493L266.444 37.6821C274.319 28.3825 282.677 19.298 291.358 10.7241L292.702 9.38022L296.437 13.1968L295.094 14.5138C286.547 22.9802 278.27 31.9304 270.503 41.1224L270.529 41.1493Z" fill="#231F20"/>
<path d="M162.006 277.912L156.658 277.59C157.088 270.413 157.706 263.157 158.513 256.034L163.834 256.625C163.055 263.667 162.436 270.817 162.006 277.912Z" fill="#231F20"/>
<path d="M168.617 224.937L163.35 223.942C177.916 147.234 213.284 76.0899 265.584 18.2229L269.562 21.8244C217.907 78.9658 182.996 149.196 168.617 224.937Z" fill="#231F20"/>
<path d="M148.703 275.332L143.354 274.983C149.133 185.696 181.491 101.462 236.935 31.3391L241.128 34.6718C186.382 103.935 154.427 187.147 148.703 275.359V275.332Z" fill="#231F20"/>
<path d="M244.487 30.479L240.321 27.1193C242.579 24.3241 244.89 21.5557 247.228 18.7873L251.313 22.2545C249.002 24.9691 246.718 27.7106 244.487 30.479Z" fill="#231F20"/>
<path d="M135.426 272.376L130.078 271.999C136.26 182.928 168.268 98.4788 222.638 27.7644L226.884 31.0165C173.16 100.898 141.527 184.352 135.399 272.349L135.426 272.376Z" fill="#231F20"/>
<path d="M230.19 26.8236L225.997 23.5177C228.228 20.6956 230.485 17.8735 232.797 15.1051L236.935 18.5185C234.651 21.26 232.42 24.0284 230.217 26.8236H230.19Z" fill="#231F20"/>
<path d="M123.682 253.158L118.36 252.567C126.423 179.084 152.25 107.671 193.074 46.0947L197.536 49.0513C157.196 109.929 131.637 180.509 123.682 253.158Z" fill="#231F20"/>
<path d="M200.492 44.6165L196.058 41.6062C199.068 37.1714 202.212 32.7098 205.41 28.3557L209.737 31.5272C206.593 35.8544 203.475 40.2623 200.492 44.6165Z" fill="#231F20"/>
<path d="M110.539 249.691L105.218 249.073C105.621 245.498 106.078 241.924 106.562 238.349L111.856 239.074C111.372 242.595 110.942 246.143 110.539 249.691Z" fill="#231F20"/>
<path d="M113.442 228.512L108.147 227.678C118.79 161.157 142.763 98.8282 179.448 42.3588L183.937 45.2615C147.681 101.086 123.95 162.743 113.415 228.512H113.442Z" fill="#231F20"/>
<path d="M99.5738 230.124L94.2793 229.318C104.385 162.796 127.551 100.118 163.108 43.0307L167.65 45.8528C132.496 102.322 109.571 164.328 99.5738 230.124Z" fill="#231F20"/>
<path d="M87.4258 220.986L82.1582 220.099C82.4538 218.325 82.7495 216.551 83.072 214.777L88.3396 215.718C88.0171 217.465 87.7214 219.239 87.4258 220.986Z" fill="#231F20"/>
<path d="M91.4038 199.968L86.1631 198.866C97.7465 143.982 118.226 91.7326 147.009 43.5951L151.605 46.3366C123.117 93.9634 102.853 145.649 91.4038 199.968Z" fill="#231F20"/>
<path d="M83.4214 175.16L78.2344 173.816C78.6913 172.069 79.1481 170.322 79.605 168.602L84.7651 170C84.3083 171.72 83.8514 173.44 83.3945 175.16H83.4214Z" fill="#231F20"/>
<path d="M105.218 109.23L100.272 107.214C109.76 83.9381 121.047 61.1461 133.813 39.4829L138.436 42.1975C125.804 63.6188 114.624 86.1689 105.218 109.23Z" fill="#231F20"/>
<path d="M98.6599 90.3349L93.7686 88.1848C101.025 71.7627 109.195 55.5287 118.037 39.9398L122.687 42.6007C113.925 58.0283 105.836 74.101 98.6599 90.3618V90.3349Z" fill="#231F20"/>
<path d="M85.8406 86.0883L80.9492 83.9381C88.1519 67.516 96.2683 51.2552 105.057 35.6125L109.733 38.2465C101.025 53.7279 92.9895 69.8275 85.8674 86.0883H85.8406Z" fill="#231F20"/>
<path d="M70.9514 86.6796L66.0332 84.5832C72.349 69.72 79.3635 54.9643 86.9424 40.7193L91.6725 43.2189C84.1742 57.3295 77.2134 71.9508 70.9514 86.6528V86.6796Z" fill="#231F20"/>
<path d="M52.1659 97.1618L47.167 95.2266C53.6709 78.5089 61.0617 61.9255 69.1243 45.9066L73.9082 48.2987C65.9261 64.1832 58.616 80.6053 52.1659 97.1618Z" fill="#231F20"/>
<path d="M35.6908 102.725L30.665 100.871C36.2283 85.7389 42.5172 70.6338 49.3167 56.0125L54.1812 58.2702C47.4354 72.7571 41.2271 87.7278 35.7176 102.725H35.6908Z" fill="#231F20"/>
<path d="M21.2313 103.236L16.1787 101.435C16.7968 99.742 17.3881 98.0487 18.0062 96.3555L23.032 98.21C22.4138 99.8764 21.7957 101.57 21.2044 103.236H21.2313Z" fill="#231F20"/>
<path d="M24.9139 93.1839L19.915 91.3025C22.4413 84.6101 25.1289 77.8638 27.8971 71.252L32.8422 73.3215C30.1009 79.8796 27.4133 86.5721 24.9139 93.2108V93.1839Z" fill="#231F20"/>
<path d="M37.0613 63.4844L32.1699 61.3342C32.8956 59.6947 33.6212 58.0552 34.3737 56.4157L39.2651 58.6196C38.5394 60.2591 37.8138 61.8718 37.0882 63.5113L37.0613 63.4844Z" fill="#231F20"/>
<path d="M5.07948 108.773L0 107.053C0.564387 105.359 1.15565 103.639 1.74691 101.946L6.79952 103.693C6.20826 105.386 5.64387 107.08 5.07948 108.746V108.773Z" fill="#231F20"/>
</g>
<defs>
<clipPath id="clip0_102_833">
<rect width="903" height="602" fill="white"/>
</clipPath>
</defs>
</svg>
