<svg width="60" height="61" viewBox="0 0 60 61" fill="none" xmlns="http://www.w3.org/2000/svg">
<circle cx="30" cy="30.2695" r="30" fill="#20201F"/>
<mask id="mask0_1272_1981" style="mask-type:alpha" maskUnits="userSpaceOnUse" x="12" y="12" width="36" height="37">
<rect x="12" y="12.2695" width="36" height="36" fill="#D9D9D9"/>
</mask>
<g mask="url(#mask0_1272_1981)">
<path d="M39 42.2695V37.7695H34.5V34.7695H39V30.2695H42V34.7695H46.5V37.7695H42V42.2695H39ZM16.5 43.7695C15.675 43.7695 14.9688 43.4758 14.3813 42.8883C13.7938 42.3008 13.5 41.5945 13.5 40.7695V19.7695C13.5 18.9445 13.7938 18.2383 14.3813 17.6508C14.9688 17.0633 15.675 16.7695 16.5 16.7695H37.5C38.325 16.7695 39.0312 17.0633 39.6188 17.6508C40.2063 18.2383 40.5 18.9445 40.5 19.7695V27.2695H37.5V24.2695H16.5V40.7695H36V43.7695H16.5ZM16.5 21.2695H37.5V19.7695H16.5V21.2695Z" fill="#E9C872"/>
</g>
</svg>
