<svg width="60" height="61" viewBox="0 0 60 61" fill="none" xmlns="http://www.w3.org/2000/svg">
<circle cx="30" cy="30.2695" r="30" fill="#20201F"/>
<mask id="mask0_1272_1990" style="mask-type:alpha" maskUnits="userSpaceOnUse" x="8" y="7" width="44" height="45">
<rect x="8" y="51.2695" width="43.305" height="43.305" transform="rotate(-90 8 51.2695)" fill="#D9D9D9"/>
</mask>
<g mask="url(#mask0_1272_1990)">
<path d="M44.0868 44.0518L40.478 44.0518L40.478 39.0897L39.8465 39.8115C38.4631 41.3753 36.8843 42.4729 35.11 43.1045C33.3357 43.736 31.5464 44.0518 29.742 44.0518C26.4039 44.0518 23.4342 43.0518 20.8329 41.052C18.2316 39.0521 16.5099 36.4433 15.6679 33.2255L19.4571 33.2255C20.239 35.3908 21.5697 37.135 23.4492 38.4582C25.3288 39.7814 27.4264 40.443 29.742 40.443C31.0953 40.443 32.411 40.1874 33.6891 39.6762C34.9672 39.1649 36.1475 38.368 37.2301 37.2854L37.6812 36.8343L33.2605 36.8343L33.2605 33.2255L44.0868 33.2255L44.0868 44.0518ZM43.6357 26.008L39.8465 26.008C39.0646 23.8428 37.7339 22.0986 35.8543 20.7753C33.9748 19.4521 31.8772 18.7905 29.5616 18.7905C28.2083 18.7905 26.8926 19.0462 25.6145 19.5574C24.3364 20.0686 23.156 20.8656 22.0734 21.9482L21.6223 22.3993L26.043 22.3993L26.043 26.008L15.2168 26.008L15.2168 15.1818L18.8255 15.1818L18.8255 20.1438L19.4571 19.4221C20.9306 17.9485 22.532 16.8734 24.2612 16.1967C25.9904 15.5201 27.7572 15.1818 29.5616 15.1818C32.8997 15.1818 35.8693 16.1817 38.4707 18.1816C41.072 20.1814 42.7936 22.7902 43.6357 26.008Z" fill="#E9C872"/>
</g>
</svg>
