<svg width="60" height="61" viewBox="0 0 60 61" fill="none" xmlns="http://www.w3.org/2000/svg">
<circle cx="30" cy="30.2695" r="30" fill="#20201F"/>
<mask id="mask0_1272_1999" style="mask-type:alpha" maskUnits="userSpaceOnUse" x="9" y="9" width="42" height="42">
<rect x="9" y="9.26953" width="41.1719" height="41.1719" fill="#D9D9D9"/>
</mask>
<g mask="url(#mask0_1272_1999)">
<path d="M15.8623 38.0703V41.3362C15.8623 41.4683 15.9173 41.5892 16.0274 41.699C16.1372 41.8091 16.2582 41.8641 16.3902 41.8641H42.7823C42.9144 41.8641 43.0353 41.8091 43.1451 41.699C43.2552 41.5892 43.3102 41.4683 43.3102 41.3362V38.0703H15.8623ZM16.3902 20.4535H21.1375C20.9945 20.1961 20.8878 19.9245 20.8175 19.6386C20.7472 19.3527 20.712 19.0525 20.712 18.738C20.712 17.5394 21.1272 16.525 21.9575 15.6947C22.7878 14.8644 23.8022 14.4492 25.0007 14.4492C25.7198 14.4492 26.385 14.6361 26.9963 15.0098C27.6076 15.3834 28.141 15.8476 28.5964 16.4023L29.5532 17.6825L30.5101 16.4023C30.9478 15.8262 31.4776 15.3566 32.0995 14.9935C32.7216 14.6306 33.3917 14.4492 34.1096 14.4492C35.3059 14.4492 36.319 14.8644 37.149 15.6947C37.9793 16.525 38.3945 17.5394 38.3945 18.738C38.3945 19.0525 38.362 19.3527 38.2971 19.6386C38.2322 19.9245 38.1229 20.1961 37.969 20.4535L42.7823 20.4535C43.6489 20.4535 44.3824 20.7537 44.9828 21.3541C45.5833 21.9545 45.8835 22.688 45.8835 23.5546V41.3362C45.8835 42.2028 45.5833 42.9363 44.9828 43.5367C44.3824 44.1371 43.6489 44.4374 42.7823 44.4374H16.3902C15.5236 44.4374 14.7901 44.1371 14.1897 43.5367C13.5893 42.9363 13.2891 42.2028 13.2891 41.3362L13.2891 23.5546C13.2891 22.688 13.5893 21.9545 14.1897 21.3541C14.7901 20.7537 15.5236 20.4535 16.3902 20.4535ZM15.8623 33.6495H43.3102V23.5546C43.3102 23.4225 43.2552 23.3016 43.1451 23.1918C43.0353 23.0817 42.9144 23.0267 42.7823 23.0267H33.4062L36.9101 27.8168L34.858 29.2947L29.5532 22.0965L24.2485 29.2947L22.1963 27.8168L25.6475 23.0267H16.3902C16.2582 23.0267 16.1372 23.0817 16.0274 23.1918C15.9173 23.3016 15.8623 23.4225 15.8623 23.5546L15.8623 33.6495ZM25.0007 20.4535C25.4868 20.4535 25.8942 20.289 26.223 19.9602C26.5518 19.6314 26.7162 19.224 26.7162 18.738C26.7162 18.2519 26.5518 17.8445 26.223 17.5157C25.8942 17.1869 25.4868 17.0225 25.0007 17.0225C24.5147 17.0225 24.1073 17.1869 23.7785 17.5157C23.4497 17.8445 23.2853 18.2519 23.2853 18.738C23.2853 19.224 23.4497 19.6314 23.7785 19.9602C24.1073 20.289 24.5147 20.4535 25.0007 20.4535ZM34.1057 20.4535C34.5918 20.4535 34.9992 20.289 35.328 19.9602C35.6568 19.6314 35.8212 19.224 35.8212 18.738C35.8212 18.2519 35.6568 17.8445 35.328 17.5157C34.9992 17.1869 34.5918 17.0225 34.1057 17.0225C33.6197 17.0225 33.2122 17.1869 32.8834 17.5157C32.5546 17.8445 32.3902 18.2519 32.3902 18.738C32.3902 19.224 32.5546 19.6314 32.8834 19.9602C33.2122 20.289 33.6197 20.4535 34.1057 20.4535Z" fill="#E9C872"/>
</g>
</svg>
